<svg enable-background="new 0 0 100 125" viewBox="0 0 100 125" xmlns="http://www.w3.org/2000/svg"><circle cx="50.2" cy="62.8" fill="#fff" r="39.1"/><path d="m88.4 62.5c-.3 16.1-10.1 30.8-25.4 36.2-20 7.2-42-3.2-49.2-23.2-3.9-10.8-2.7-22.9 3.2-32.7 8.5-13.9 24.8-21.1 40.8-17.9 17.9 3.7 30.3 19.6 30.6 37.6 0 1.9 3 1.9 3 0-.2-17.3-10.9-32.7-27-38.8-21.5-8-45.3 3-53.2 24.4-4.4 11.8-3.2 24.9 3.3 35.7 8.9 14.7 25.9 22.4 42.8 19.5 19.8-3.5 33.8-21 34.1-40.8 0-1.9-3-1.9-3 0z"/><path d="m36.9 52.7 21.2 21.2c.6.6 1.6.5 2.1-.1s.5-1.5 0-2l-21.1-21.3c-.6-.6-1.6-.5-2.1.1-.6.6-.6 1.5-.1 2.1z"/><path d="m58.2 50.5-21.3 21.3c-.6.6-.5 1.6.1 2.1s1.5.5 2 0l21.3-21.2c.6-.6.5-1.6-.1-2.1-.5-.6-1.4-.6-2-.1z"/></svg>